
<svg width="90px" height="90px" viewBox="0 0 90 90" version="1.1" xmlns="http://www.w3.org/2000/svg" xmlns:xlink="http://www.w3.org/1999/xlink">
    <g id="Symbols" stroke="none" stroke-width="1" fill="none" fill-rule="evenodd">
        <g id="Elements/-Footer-/-New-Sociolla" transform="translate(-735.000000, -214.000000)">
            <g id="Group-7" transform="translate(735.000000, 129.000000)">
                <g id="Group-2" transform="translate(0.000000, 85.000000)">
                    <rect id="Rectangle" stroke="#222222" fill="#FFFFFF" x="0.5" y="0.5" width="89" height="89" rx="4"></rect>
                    <g id="QR-Download-SOCO---App-on-Sociolla-Desktop_QR-code" transform="translate(10.000000, 10.000000)" fill-rule="nonzero">
                        <polygon id="Path" fill="#FFFFFF" points="0 0 70 0 70 70 0 70"></polygon>
                        <path d="M0,0 L14.8484848,0 L14.8484848,2.12121212 L0,2.12121212 L0,0 Z M16.969697,0 L36.0606061,0 L36.0606061,2.12121212 L16.969697,2.12121212 L16.969697,0 Z M38.1818182,0 L40.3030303,0 L40.3030303,2.12121212 L38.1818182,2.12121212 L38.1818182,0 Z M48.7878788,0 L50.9090909,0 L50.9090909,2.12121212 L48.7878788,2.12121212 L48.7878788,0 Z M55.1515152,0 L70,0 L70,2.12121212 L55.1515152,2.12121212 L55.1515152,0 Z M0,2.12121212 L2.12121212,2.12121212 L2.12121212,4.24242424 L0,4.24242424 L0,2.12121212 Z M12.7272727,2.12121212 L14.8484848,2.12121212 L14.8484848,4.24242424 L12.7272727,4.24242424 L12.7272727,2.12121212 Z M21.2121212,2.12121212 L23.3333333,2.12121212 L23.3333333,4.24242424 L21.2121212,4.24242424 L21.2121212,2.12121212 Z M25.4545455,2.12121212 L31.8181818,2.12121212 L31.8181818,4.24242424 L25.4545455,4.24242424 L25.4545455,2.12121212 Z M33.9393939,2.12121212 L36.0606061,2.12121212 L36.0606061,4.24242424 L33.9393939,4.24242424 L33.9393939,2.12121212 Z M38.1818182,2.12121212 L44.5454545,2.12121212 L44.5454545,4.24242424 L38.1818182,4.24242424 L38.1818182,2.12121212 Z M55.1515152,2.12121212 L57.2727273,2.12121212 L57.2727273,4.24242424 L55.1515152,4.24242424 L55.1515152,2.12121212 Z M67.8787879,2.12121212 L70,2.12121212 L70,4.24242424 L67.8787879,4.24242424 L67.8787879,2.12121212 Z M0,4.24242424 L2.12121212,4.24242424 L2.12121212,6.36363636 L0,6.36363636 L0,4.24242424 Z M4.24242424,4.24242424 L10.6060606,4.24242424 L10.6060606,6.36363636 L4.24242424,6.36363636 L4.24242424,4.24242424 Z M12.7272727,4.24242424 L14.8484848,4.24242424 L14.8484848,6.36363636 L12.7272727,6.36363636 L12.7272727,4.24242424 Z M23.3333333,4.24242424 L27.5757576,4.24242424 L27.5757576,6.36363636 L23.3333333,6.36363636 L23.3333333,4.24242424 Z M29.6969697,4.24242424 L31.8181818,4.24242424 L31.8181818,6.36363636 L29.6969697,6.36363636 L29.6969697,4.24242424 Z M33.9393939,4.24242424 L46.6666667,4.24242424 L46.6666667,6.36363636 L33.9393939,6.36363636 L33.9393939,4.24242424 Z M50.9090909,4.24242424 L53.030303,4.24242424 L53.030303,6.36363636 L50.9090909,6.36363636 L50.9090909,4.24242424 Z M55.1515152,4.24242424 L57.2727273,4.24242424 L57.2727273,6.36363636 L55.1515152,6.36363636 L55.1515152,4.24242424 Z M59.3939394,4.24242424 L65.7575758,4.24242424 L65.7575758,6.36363636 L59.3939394,6.36363636 L59.3939394,4.24242424 Z M67.8787879,4.24242424 L70,4.24242424 L70,6.36363636 L67.8787879,6.36363636 L67.8787879,4.24242424 Z M0,6.36363636 L2.12121212,6.36363636 L2.12121212,8.48484848 L0,8.48484848 L0,6.36363636 Z M4.24242424,6.36363636 L10.6060606,6.36363636 L10.6060606,8.48484848 L4.24242424,8.48484848 L4.24242424,6.36363636 Z M12.7272727,6.36363636 L14.8484848,6.36363636 L14.8484848,8.48484848 L12.7272727,8.48484848 L12.7272727,6.36363636 Z M16.969697,6.36363636 L19.0909091,6.36363636 L19.0909091,8.48484848 L16.969697,8.48484848 L16.969697,6.36363636 Z M25.4545455,6.36363636 L27.5757576,6.36363636 L27.5757576,8.48484848 L25.4545455,8.48484848 L25.4545455,6.36363636 Z M31.8181818,6.36363636 L38.1818182,6.36363636 L38.1818182,8.48484848 L31.8181818,8.48484848 L31.8181818,6.36363636 Z M40.3030303,6.36363636 L42.4242424,6.36363636 L42.4242424,8.48484848 L40.3030303,8.48484848 L40.3030303,6.36363636 Z M44.5454545,6.36363636 L48.7878788,6.36363636 L48.7878788,8.48484848 L44.5454545,8.48484848 L44.5454545,6.36363636 Z M55.1515152,6.36363636 L57.2727273,6.36363636 L57.2727273,8.48484848 L55.1515152,8.48484848 L55.1515152,6.36363636 Z M59.3939394,6.36363636 L65.7575758,6.36363636 L65.7575758,8.48484848 L59.3939394,8.48484848 L59.3939394,6.36363636 Z M67.8787879,6.36363636 L70,6.36363636 L70,8.48484848 L67.8787879,8.48484848 L67.8787879,6.36363636 Z M0,8.48484848 L2.12121212,8.48484848 L2.12121212,10.6060606 L0,10.6060606 L0,8.48484848 Z M4.24242424,8.48484848 L10.6060606,8.48484848 L10.6060606,10.6060606 L4.24242424,10.6060606 L4.24242424,8.48484848 Z M12.7272727,8.48484848 L14.8484848,8.48484848 L14.8484848,10.6060606 L12.7272727,10.6060606 L12.7272727,8.48484848 Z M16.969697,8.48484848 L19.0909091,8.48484848 L19.0909091,10.6060606 L16.969697,10.6060606 L16.969697,8.48484848 Z M23.3333333,8.48484848 L27.5757576,8.48484848 L27.5757576,10.6060606 L23.3333333,10.6060606 L23.3333333,8.48484848 Z M33.9393939,8.48484848 L38.1818182,8.48484848 L38.1818182,10.6060606 L33.9393939,10.6060606 L33.9393939,8.48484848 Z M40.3030303,8.48484848 L42.4242424,8.48484848 L42.4242424,10.6060606 L40.3030303,10.6060606 L40.3030303,8.48484848 Z M44.5454545,8.48484848 L48.7878788,8.48484848 L48.7878788,10.6060606 L44.5454545,10.6060606 L44.5454545,8.48484848 Z M55.1515152,8.48484848 L57.2727273,8.48484848 L57.2727273,10.6060606 L55.1515152,10.6060606 L55.1515152,8.48484848 Z M59.3939394,8.48484848 L65.7575758,8.48484848 L65.7575758,10.6060606 L59.3939394,10.6060606 L59.3939394,8.48484848 Z M67.8787879,8.48484848 L70,8.48484848 L70,10.6060606 L67.8787879,10.6060606 L67.8787879,8.48484848 Z M0,10.6060606 L2.12121212,10.6060606 L2.12121212,12.7272727 L0,12.7272727 L0,10.6060606 Z M12.7272727,10.6060606 L14.8484848,10.6060606 L14.8484848,12.7272727 L12.7272727,12.7272727 L12.7272727,10.6060606 Z M16.969697,10.6060606 L25.4545455,10.6060606 L25.4545455,12.7272727 L16.969697,12.7272727 L16.969697,10.6060606 Z M31.8181818,10.6060606 L33.9393939,10.6060606 L33.9393939,12.7272727 L31.8181818,12.7272727 L31.8181818,10.6060606 Z M42.4242424,10.6060606 L44.5454545,10.6060606 L44.5454545,12.7272727 L42.4242424,12.7272727 L42.4242424,10.6060606 Z M46.6666667,10.6060606 L53.030303,10.6060606 L53.030303,12.7272727 L46.6666667,12.7272727 L46.6666667,10.6060606 Z M55.1515152,10.6060606 L57.2727273,10.6060606 L57.2727273,12.7272727 L55.1515152,12.7272727 L55.1515152,10.6060606 Z M67.8787879,10.6060606 L70,10.6060606 L70,12.7272727 L67.8787879,12.7272727 L67.8787879,10.6060606 Z M0,12.7272727 L14.8484848,12.7272727 L14.8484848,14.8484848 L0,14.8484848 L0,12.7272727 Z M16.969697,12.7272727 L19.0909091,12.7272727 L19.0909091,14.8484848 L16.969697,14.8484848 L16.969697,12.7272727 Z M21.2121212,12.7272727 L23.3333333,12.7272727 L23.3333333,14.8484848 L21.2121212,14.8484848 L21.2121212,12.7272727 Z M25.4545455,12.7272727 L27.5757576,12.7272727 L27.5757576,14.8484848 L25.4545455,14.8484848 L25.4545455,12.7272727 Z M29.6969697,12.7272727 L31.8181818,12.7272727 L31.8181818,14.8484848 L29.6969697,14.8484848 L29.6969697,12.7272727 Z M33.9393939,12.7272727 L36.0606061,12.7272727 L36.0606061,14.8484848 L33.9393939,14.8484848 L33.9393939,12.7272727 Z M38.1818182,12.7272727 L40.3030303,12.7272727 L40.3030303,14.8484848 L38.1818182,14.8484848 L38.1818182,12.7272727 Z M42.4242424,12.7272727 L44.5454545,12.7272727 L44.5454545,14.8484848 L42.4242424,14.8484848 L42.4242424,12.7272727 Z M46.6666667,12.7272727 L48.7878788,12.7272727 L48.7878788,14.8484848 L46.6666667,14.8484848 L46.6666667,12.7272727 Z M50.9090909,12.7272727 L53.030303,12.7272727 L53.030303,14.8484848 L50.9090909,14.8484848 L50.9090909,12.7272727 Z M55.1515152,12.7272727 L70,12.7272727 L70,14.8484848 L55.1515152,14.8484848 L55.1515152,12.7272727 Z M16.969697,14.8484848 L19.0909091,14.8484848 L19.0909091,16.969697 L16.969697,16.969697 L16.969697,14.8484848 Z M21.2121212,14.8484848 L25.4545455,14.8484848 L25.4545455,16.969697 L21.2121212,16.969697 L21.2121212,14.8484848 Z M29.6969697,14.8484848 L31.8181818,14.8484848 L31.8181818,16.969697 L29.6969697,16.969697 L29.6969697,14.8484848 Z M36.0606061,14.8484848 L38.1818182,14.8484848 L38.1818182,16.969697 L36.0606061,16.969697 L36.0606061,14.8484848 Z M40.3030303,14.8484848 L48.7878788,14.8484848 L48.7878788,16.969697 L40.3030303,16.969697 L40.3030303,14.8484848 Z M50.9090909,14.8484848 L53.030303,14.8484848 L53.030303,16.969697 L50.9090909,16.969697 L50.9090909,14.8484848 Z M0,16.969697 L2.12121212,16.969697 L2.12121212,19.0909091 L0,19.0909091 L0,16.969697 Z M8.48484848,16.969697 L10.6060606,16.969697 L10.6060606,19.0909091 L8.48484848,19.0909091 L8.48484848,16.969697 Z M12.7272727,16.969697 L23.3333333,16.969697 L23.3333333,19.0909091 L12.7272727,19.0909091 L12.7272727,16.969697 Z M31.8181818,16.969697 L38.1818182,16.969697 L38.1818182,19.0909091 L31.8181818,19.0909091 L31.8181818,16.969697 Z M42.4242424,16.969697 L63.6363636,16.969697 L63.6363636,19.0909091 L42.4242424,19.0909091 L42.4242424,16.969697 Z M67.8787879,16.969697 L70,16.969697 L70,19.0909091 L67.8787879,19.0909091 L67.8787879,16.969697 Z M0,19.0909091 L2.12121212,19.0909091 L2.12121212,21.2121212 L0,21.2121212 L0,19.0909091 Z M4.24242424,19.0909091 L6.36363636,19.0909091 L6.36363636,21.2121212 L4.24242424,21.2121212 L4.24242424,19.0909091 Z M8.48484848,19.0909091 L12.7272727,19.0909091 L12.7272727,21.2121212 L8.48484848,21.2121212 L8.48484848,19.0909091 Z M14.8484848,19.0909091 L19.0909091,19.0909091 L19.0909091,21.2121212 L14.8484848,21.2121212 L14.8484848,19.0909091 Z M21.2121212,19.0909091 L23.3333333,19.0909091 L23.3333333,21.2121212 L21.2121212,21.2121212 L21.2121212,19.0909091 Z M25.4545455,19.0909091 L27.5757576,19.0909091 L27.5757576,21.2121212 L25.4545455,21.2121212 L25.4545455,19.0909091 Z M29.6969697,19.0909091 L40.3030303,19.0909091 L40.3030303,21.2121212 L29.6969697,21.2121212 L29.6969697,19.0909091 Z M42.4242424,19.0909091 L46.6666667,19.0909091 L46.6666667,21.2121212 L42.4242424,21.2121212 L42.4242424,19.0909091 Z M48.7878788,19.0909091 L50.9090909,19.0909091 L50.9090909,21.2121212 L48.7878788,21.2121212 L48.7878788,19.0909091 Z M53.030303,19.0909091 L55.1515152,19.0909091 L55.1515152,21.2121212 L53.030303,21.2121212 L53.030303,19.0909091 Z M61.5151515,19.0909091 L65.7575758,19.0909091 L65.7575758,21.2121212 L61.5151515,21.2121212 L61.5151515,19.0909091 Z M4.24242424,21.2121212 L6.36363636,21.2121212 L6.36363636,23.3333333 L4.24242424,23.3333333 L4.24242424,21.2121212 Z M8.48484848,21.2121212 L10.6060606,21.2121212 L10.6060606,23.3333333 L8.48484848,23.3333333 L8.48484848,21.2121212 Z M12.7272727,21.2121212 L21.2121212,21.2121212 L21.2121212,23.3333333 L12.7272727,23.3333333 L12.7272727,21.2121212 Z M25.4545455,21.2121212 L33.9393939,21.2121212 L33.9393939,23.3333333 L25.4545455,23.3333333 L25.4545455,21.2121212 Z M38.1818182,21.2121212 L40.3030303,21.2121212 L40.3030303,23.3333333 L38.1818182,23.3333333 L38.1818182,21.2121212 Z M48.7878788,21.2121212 L57.2727273,21.2121212 L57.2727273,23.3333333 L48.7878788,23.3333333 L48.7878788,21.2121212 Z M61.5151515,21.2121212 L63.6363636,21.2121212 L63.6363636,23.3333333 L61.5151515,23.3333333 L61.5151515,21.2121212 Z M65.7575758,21.2121212 L67.8787879,21.2121212 L67.8787879,23.3333333 L65.7575758,23.3333333 L65.7575758,21.2121212 Z M2.12121212,23.3333333 L4.24242424,23.3333333 L4.24242424,25.4545455 L2.12121212,25.4545455 L2.12121212,23.3333333 Z M6.36363636,23.3333333 L10.6060606,23.3333333 L10.6060606,25.4545455 L6.36363636,25.4545455 L6.36363636,23.3333333 Z M21.2121212,23.3333333 L25.4545455,23.3333333 L25.4545455,25.4545455 L21.2121212,25.4545455 L21.2121212,23.3333333 Z M27.5757576,23.3333333 L29.6969697,23.3333333 L29.6969697,25.4545455 L27.5757576,25.4545455 L27.5757576,23.3333333 Z M46.6666667,23.3333333 L50.9090909,23.3333333 L50.9090909,25.4545455 L46.6666667,25.4545455 L46.6666667,23.3333333 Z M55.1515152,23.3333333 L57.2727273,23.3333333 L57.2727273,25.4545455 L55.1515152,25.4545455 L55.1515152,23.3333333 Z M65.7575758,23.3333333 L67.8787879,23.3333333 L67.8787879,25.4545455 L65.7575758,25.4545455 L65.7575758,23.3333333 Z M0,25.4545455 L2.12121212,25.4545455 L2.12121212,27.5757576 L0,27.5757576 L0,25.4545455 Z M4.24242424,25.4545455 L8.48484848,25.4545455 L8.48484848,27.5757576 L4.24242424,27.5757576 L4.24242424,25.4545455 Z M12.7272727,25.4545455 L14.8484848,25.4545455 L14.8484848,27.5757576 L12.7272727,27.5757576 L12.7272727,25.4545455 Z M19.0909091,25.4545455 L21.2121212,25.4545455 L21.2121212,27.5757576 L19.0909091,27.5757576 L19.0909091,25.4545455 Z M23.3333333,25.4545455 L25.4545455,25.4545455 L25.4545455,27.5757576 L23.3333333,27.5757576 L23.3333333,25.4545455 Z M27.5757576,25.4545455 L29.6969697,25.4545455 L29.6969697,27.5757576 L27.5757576,27.5757576 L27.5757576,25.4545455 Z M31.8181818,25.4545455 L36.0606061,25.4545455 L36.0606061,27.5757576 L31.8181818,27.5757576 L31.8181818,25.4545455 Z M40.3030303,25.4545455 L42.4242424,25.4545455 L42.4242424,27.5757576 L40.3030303,27.5757576 L40.3030303,25.4545455 Z M46.6666667,25.4545455 L53.030303,25.4545455 L53.030303,27.5757576 L46.6666667,27.5757576 L46.6666667,25.4545455 Z M55.1515152,25.4545455 L57.2727273,25.4545455 L57.2727273,27.5757576 L55.1515152,27.5757576 L55.1515152,25.4545455 Z M59.3939394,25.4545455 L63.6363636,25.4545455 L63.6363636,27.5757576 L59.3939394,27.5757576 L59.3939394,25.4545455 Z M65.7575758,25.4545455 L70,25.4545455 L70,27.5757576 L65.7575758,27.5757576 L65.7575758,25.4545455 Z M4.24242424,27.5757576 L8.48484848,27.5757576 L8.48484848,29.6969697 L4.24242424,29.6969697 L4.24242424,27.5757576 Z M10.6060606,27.5757576 L12.7272727,27.5757576 L12.7272727,29.6969697 L10.6060606,29.6969697 L10.6060606,27.5757576 Z M14.8484848,27.5757576 L19.0909091,27.5757576 L19.0909091,29.6969697 L14.8484848,29.6969697 L14.8484848,27.5757576 Z M23.3333333,27.5757576 L27.5757576,27.5757576 L27.5757576,29.6969697 L23.3333333,29.6969697 L23.3333333,27.5757576 Z M29.6969697,27.5757576 L31.8181818,27.5757576 L31.8181818,29.6969697 L29.6969697,29.6969697 L29.6969697,27.5757576 Z M36.0606061,27.5757576 L46.6666667,27.5757576 L46.6666667,29.6969697 L36.0606061,29.6969697 L36.0606061,27.5757576 Z M50.9090909,27.5757576 L55.1515152,27.5757576 L55.1515152,29.6969697 L50.9090909,29.6969697 L50.9090909,27.5757576 Z M57.2727273,27.5757576 L59.3939394,27.5757576 L59.3939394,29.6969697 L57.2727273,29.6969697 L57.2727273,27.5757576 Z M63.6363636,27.5757576 L65.7575758,27.5757576 L65.7575758,29.6969697 L63.6363636,29.6969697 L63.6363636,27.5757576 Z M2.12121212,29.6969697 L8.48484848,29.6969697 L8.48484848,31.8181818 L2.12121212,31.8181818 L2.12121212,29.6969697 Z M10.6060606,29.6969697 L23.3333333,29.6969697 L23.3333333,31.8181818 L10.6060606,31.8181818 L10.6060606,29.6969697 Z M25.4545455,29.6969697 L29.6969697,29.6969697 L29.6969697,31.8181818 L25.4545455,31.8181818 L25.4545455,29.6969697 Z M31.8181818,29.6969697 L33.9393939,29.6969697 L33.9393939,31.8181818 L31.8181818,31.8181818 L31.8181818,29.6969697 Z M36.0606061,29.6969697 L38.1818182,29.6969697 L38.1818182,31.8181818 L36.0606061,31.8181818 L36.0606061,29.6969697 Z M42.4242424,29.6969697 L46.6666667,29.6969697 L46.6666667,31.8181818 L42.4242424,31.8181818 L42.4242424,29.6969697 Z M48.7878788,29.6969697 L50.9090909,29.6969697 L50.9090909,31.8181818 L48.7878788,31.8181818 L48.7878788,29.6969697 Z M53.030303,29.6969697 L57.2727273,29.6969697 L57.2727273,31.8181818 L53.030303,31.8181818 L53.030303,29.6969697 Z M61.5151515,29.6969697 L63.6363636,29.6969697 L63.6363636,31.8181818 L61.5151515,31.8181818 L61.5151515,29.6969697 Z M65.7575758,29.6969697 L67.8787879,29.6969697 L67.8787879,31.8181818 L65.7575758,31.8181818 L65.7575758,29.6969697 Z M6.36363636,31.8181818 L10.6060606,31.8181818 L10.6060606,33.9393939 L6.36363636,33.9393939 L6.36363636,31.8181818 Z M16.969697,31.8181818 L19.0909091,31.8181818 L19.0909091,33.9393939 L16.969697,33.9393939 L16.969697,31.8181818 Z M31.8181818,31.8181818 L40.3030303,31.8181818 L40.3030303,33.9393939 L31.8181818,33.9393939 L31.8181818,31.8181818 Z M44.5454545,31.8181818 L57.2727273,31.8181818 L57.2727273,33.9393939 L44.5454545,33.9393939 L44.5454545,31.8181818 Z M59.3939394,31.8181818 L61.5151515,31.8181818 L61.5151515,33.9393939 L59.3939394,33.9393939 L59.3939394,31.8181818 Z M0,33.9393939 L2.12121212,33.9393939 L2.12121212,36.0606061 L0,36.0606061 L0,33.9393939 Z M10.6060606,33.9393939 L19.0909091,33.9393939 L19.0909091,36.0606061 L10.6060606,36.0606061 L10.6060606,33.9393939 Z M21.2121212,33.9393939 L23.3333333,33.9393939 L23.3333333,36.0606061 L21.2121212,36.0606061 L21.2121212,33.9393939 Z M25.4545455,33.9393939 L29.6969697,33.9393939 L29.6969697,36.0606061 L25.4545455,36.0606061 L25.4545455,33.9393939 Z M36.0606061,33.9393939 L38.1818182,33.9393939 L38.1818182,36.0606061 L36.0606061,36.0606061 L36.0606061,33.9393939 Z M40.3030303,33.9393939 L42.4242424,33.9393939 L42.4242424,36.0606061 L40.3030303,36.0606061 L40.3030303,33.9393939 Z M44.5454545,33.9393939 L48.7878788,33.9393939 L48.7878788,36.0606061 L44.5454545,36.0606061 L44.5454545,33.9393939 Z M50.9090909,33.9393939 L53.030303,33.9393939 L53.030303,36.0606061 L50.9090909,36.0606061 L50.9090909,33.9393939 Z M55.1515152,33.9393939 L57.2727273,33.9393939 L57.2727273,36.0606061 L55.1515152,36.0606061 L55.1515152,33.9393939 Z M59.3939394,33.9393939 L63.6363636,33.9393939 L63.6363636,36.0606061 L59.3939394,36.0606061 L59.3939394,33.9393939 Z M65.7575758,33.9393939 L67.8787879,33.9393939 L67.8787879,36.0606061 L65.7575758,36.0606061 L65.7575758,33.9393939 Z M2.12121212,36.0606061 L6.36363636,36.0606061 L6.36363636,38.1818182 L2.12121212,38.1818182 L2.12121212,36.0606061 Z M14.8484848,36.0606061 L19.0909091,36.0606061 L19.0909091,38.1818182 L14.8484848,38.1818182 L14.8484848,36.0606061 Z M21.2121212,36.0606061 L23.3333333,36.0606061 L23.3333333,38.1818182 L21.2121212,38.1818182 L21.2121212,36.0606061 Z M25.4545455,36.0606061 L33.9393939,36.0606061 L33.9393939,38.1818182 L25.4545455,38.1818182 L25.4545455,36.0606061 Z M38.1818182,36.0606061 L40.3030303,36.0606061 L40.3030303,38.1818182 L38.1818182,38.1818182 L38.1818182,36.0606061 Z M48.7878788,36.0606061 L50.9090909,36.0606061 L50.9090909,38.1818182 L48.7878788,38.1818182 L48.7878788,36.0606061 Z M61.5151515,36.0606061 L67.8787879,36.0606061 L67.8787879,38.1818182 L61.5151515,38.1818182 L61.5151515,36.0606061 Z M0,38.1818182 L2.12121212,38.1818182 L2.12121212,40.3030303 L0,40.3030303 L0,38.1818182 Z M4.24242424,38.1818182 L8.48484848,38.1818182 L8.48484848,40.3030303 L4.24242424,40.3030303 L4.24242424,38.1818182 Z M12.7272727,38.1818182 L14.8484848,38.1818182 L14.8484848,40.3030303 L12.7272727,40.3030303 L12.7272727,38.1818182 Z M19.0909091,38.1818182 L21.2121212,38.1818182 L21.2121212,40.3030303 L19.0909091,40.3030303 L19.0909091,38.1818182 Z M23.3333333,38.1818182 L27.5757576,38.1818182 L27.5757576,40.3030303 L23.3333333,40.3030303 L23.3333333,38.1818182 Z M31.8181818,38.1818182 L33.9393939,38.1818182 L33.9393939,40.3030303 L31.8181818,40.3030303 L31.8181818,38.1818182 Z M36.0606061,38.1818182 L38.1818182,38.1818182 L38.1818182,40.3030303 L36.0606061,40.3030303 L36.0606061,38.1818182 Z M44.5454545,38.1818182 L59.3939394,38.1818182 L59.3939394,40.3030303 L44.5454545,40.3030303 L44.5454545,38.1818182 Z M61.5151515,38.1818182 L63.6363636,38.1818182 L63.6363636,40.3030303 L61.5151515,40.3030303 L61.5151515,38.1818182 Z M65.7575758,38.1818182 L67.8787879,38.1818182 L67.8787879,40.3030303 L65.7575758,40.3030303 L65.7575758,38.1818182 Z M4.24242424,40.3030303 L6.36363636,40.3030303 L6.36363636,42.4242424 L4.24242424,42.4242424 L4.24242424,40.3030303 Z M8.48484848,40.3030303 L12.7272727,40.3030303 L12.7272727,42.4242424 L8.48484848,42.4242424 L8.48484848,40.3030303 Z M14.8484848,40.3030303 L16.969697,40.3030303 L16.969697,42.4242424 L14.8484848,42.4242424 L14.8484848,40.3030303 Z M31.8181818,40.3030303 L33.9393939,40.3030303 L33.9393939,42.4242424 L31.8181818,42.4242424 L31.8181818,40.3030303 Z M36.0606061,40.3030303 L40.3030303,40.3030303 L40.3030303,42.4242424 L36.0606061,42.4242424 L36.0606061,40.3030303 Z M44.5454545,40.3030303 L46.6666667,40.3030303 L46.6666667,42.4242424 L44.5454545,42.4242424 L44.5454545,40.3030303 Z M57.2727273,40.3030303 L59.3939394,40.3030303 L59.3939394,42.4242424 L57.2727273,42.4242424 L57.2727273,40.3030303 Z M65.7575758,40.3030303 L70,40.3030303 L70,42.4242424 L65.7575758,42.4242424 L65.7575758,40.3030303 Z M0,42.4242424 L2.12121212,42.4242424 L2.12121212,44.5454545 L0,44.5454545 L0,42.4242424 Z M4.24242424,42.4242424 L6.36363636,42.4242424 L6.36363636,44.5454545 L4.24242424,44.5454545 L4.24242424,42.4242424 Z M12.7272727,42.4242424 L16.969697,42.4242424 L16.969697,44.5454545 L12.7272727,44.5454545 L12.7272727,42.4242424 Z M21.2121212,42.4242424 L25.4545455,42.4242424 L25.4545455,44.5454545 L21.2121212,44.5454545 L21.2121212,42.4242424 Z M29.6969697,42.4242424 L31.8181818,42.4242424 L31.8181818,44.5454545 L29.6969697,44.5454545 L29.6969697,42.4242424 Z M38.1818182,42.4242424 L44.5454545,42.4242424 L44.5454545,44.5454545 L38.1818182,44.5454545 L38.1818182,42.4242424 Z M50.9090909,42.4242424 L53.030303,42.4242424 L53.030303,44.5454545 L50.9090909,44.5454545 L50.9090909,42.4242424 Z M55.1515152,42.4242424 L63.6363636,42.4242424 L63.6363636,44.5454545 L55.1515152,44.5454545 L55.1515152,42.4242424 Z M0,44.5454545 L8.48484848,44.5454545 L8.48484848,46.6666667 L0,46.6666667 L0,44.5454545 Z M16.969697,44.5454545 L19.0909091,44.5454545 L19.0909091,46.6666667 L16.969697,46.6666667 L16.969697,44.5454545 Z M25.4545455,44.5454545 L27.5757576,44.5454545 L27.5757576,46.6666667 L25.4545455,46.6666667 L25.4545455,44.5454545 Z M29.6969697,44.5454545 L31.8181818,44.5454545 L31.8181818,46.6666667 L29.6969697,46.6666667 L29.6969697,44.5454545 Z M33.9393939,44.5454545 L38.1818182,44.5454545 L38.1818182,46.6666667 L33.9393939,46.6666667 L33.9393939,44.5454545 Z M40.3030303,44.5454545 L42.4242424,44.5454545 L42.4242424,46.6666667 L40.3030303,46.6666667 L40.3030303,44.5454545 Z M46.6666667,44.5454545 L50.9090909,44.5454545 L50.9090909,46.6666667 L46.6666667,46.6666667 L46.6666667,44.5454545 Z M53.030303,44.5454545 L55.1515152,44.5454545 L55.1515152,46.6666667 L53.030303,46.6666667 L53.030303,44.5454545 Z M57.2727273,44.5454545 L59.3939394,44.5454545 L59.3939394,46.6666667 L57.2727273,46.6666667 L57.2727273,44.5454545 Z M63.6363636,44.5454545 L67.8787879,44.5454545 L67.8787879,46.6666667 L63.6363636,46.6666667 L63.6363636,44.5454545 Z M6.36363636,46.6666667 L8.48484848,46.6666667 L8.48484848,48.7878788 L6.36363636,48.7878788 L6.36363636,46.6666667 Z M10.6060606,46.6666667 L14.8484848,46.6666667 L14.8484848,48.7878788 L10.6060606,48.7878788 L10.6060606,46.6666667 Z M16.969697,46.6666667 L23.3333333,46.6666667 L23.3333333,48.7878788 L16.969697,48.7878788 L16.969697,46.6666667 Z M25.4545455,46.6666667 L27.5757576,46.6666667 L27.5757576,48.7878788 L25.4545455,48.7878788 L25.4545455,46.6666667 Z M33.9393939,46.6666667 L36.0606061,46.6666667 L36.0606061,48.7878788 L33.9393939,48.7878788 L33.9393939,46.6666667 Z M38.1818182,46.6666667 L42.4242424,46.6666667 L42.4242424,48.7878788 L38.1818182,48.7878788 L38.1818182,46.6666667 Z M44.5454545,46.6666667 L53.030303,46.6666667 L53.030303,48.7878788 L44.5454545,48.7878788 L44.5454545,46.6666667 Z M61.5151515,46.6666667 L63.6363636,46.6666667 L63.6363636,48.7878788 L61.5151515,48.7878788 L61.5151515,46.6666667 Z M65.7575758,46.6666667 L67.8787879,46.6666667 L67.8787879,48.7878788 L65.7575758,48.7878788 L65.7575758,46.6666667 Z M4.24242424,48.7878788 L8.48484848,48.7878788 L8.48484848,50.9090909 L4.24242424,50.9090909 L4.24242424,48.7878788 Z M10.6060606,48.7878788 L12.7272727,48.7878788 L12.7272727,50.9090909 L10.6060606,50.9090909 L10.6060606,48.7878788 Z M23.3333333,48.7878788 L25.4545455,48.7878788 L25.4545455,50.9090909 L23.3333333,50.9090909 L23.3333333,48.7878788 Z M27.5757576,48.7878788 L29.6969697,48.7878788 L29.6969697,50.9090909 L27.5757576,50.9090909 L27.5757576,48.7878788 Z M36.0606061,48.7878788 L38.1818182,48.7878788 L38.1818182,50.9090909 L36.0606061,50.9090909 L36.0606061,48.7878788 Z M40.3030303,48.7878788 L46.6666667,48.7878788 L46.6666667,50.9090909 L40.3030303,50.9090909 L40.3030303,48.7878788 Z M48.7878788,48.7878788 L50.9090909,48.7878788 L50.9090909,50.9090909 L48.7878788,50.9090909 L48.7878788,48.7878788 Z M53.030303,48.7878788 L57.2727273,48.7878788 L57.2727273,50.9090909 L53.030303,50.9090909 L53.030303,48.7878788 Z M65.7575758,48.7878788 L70,48.7878788 L70,50.9090909 L65.7575758,50.9090909 L65.7575758,48.7878788 Z M0,50.9090909 L6.36363636,50.9090909 L6.36363636,53.030303 L0,53.030303 L0,50.9090909 Z M8.48484848,50.9090909 L19.0909091,50.9090909 L19.0909091,53.030303 L8.48484848,53.030303 L8.48484848,50.9090909 Z M21.2121212,50.9090909 L23.3333333,50.9090909 L23.3333333,53.030303 L21.2121212,53.030303 L21.2121212,50.9090909 Z M25.4545455,50.9090909 L29.6969697,50.9090909 L29.6969697,53.030303 L25.4545455,53.030303 L25.4545455,50.9090909 Z M31.8181818,50.9090909 L33.9393939,50.9090909 L33.9393939,53.030303 L31.8181818,53.030303 L31.8181818,50.9090909 Z M36.0606061,50.9090909 L38.1818182,50.9090909 L38.1818182,53.030303 L36.0606061,53.030303 L36.0606061,50.9090909 Z M44.5454545,50.9090909 L46.6666667,50.9090909 L46.6666667,53.030303 L44.5454545,53.030303 L44.5454545,50.9090909 Z M50.9090909,50.9090909 L61.5151515,50.9090909 L61.5151515,53.030303 L50.9090909,53.030303 L50.9090909,50.9090909 Z M65.7575758,50.9090909 L67.8787879,50.9090909 L67.8787879,53.030303 L65.7575758,53.030303 L65.7575758,50.9090909 Z M16.969697,53.030303 L19.0909091,53.030303 L19.0909091,55.1515152 L16.969697,55.1515152 L16.969697,53.030303 Z M25.4545455,53.030303 L27.5757576,53.030303 L27.5757576,55.1515152 L25.4545455,55.1515152 L25.4545455,53.030303 Z M31.8181818,53.030303 L40.3030303,53.030303 L40.3030303,55.1515152 L31.8181818,55.1515152 L31.8181818,53.030303 Z M44.5454545,53.030303 L46.6666667,53.030303 L46.6666667,55.1515152 L44.5454545,55.1515152 L44.5454545,53.030303 Z M50.9090909,53.030303 L53.030303,53.030303 L53.030303,55.1515152 L50.9090909,55.1515152 L50.9090909,53.030303 Z M59.3939394,53.030303 L61.5151515,53.030303 L61.5151515,55.1515152 L59.3939394,55.1515152 L59.3939394,53.030303 Z M63.6363636,53.030303 L67.8787879,53.030303 L67.8787879,55.1515152 L63.6363636,55.1515152 L63.6363636,53.030303 Z M0,55.1515152 L14.8484848,55.1515152 L14.8484848,57.2727273 L0,57.2727273 L0,55.1515152 Z M16.969697,55.1515152 L19.0909091,55.1515152 L19.0909091,57.2727273 L16.969697,57.2727273 L16.969697,55.1515152 Z M21.2121212,55.1515152 L23.3333333,55.1515152 L23.3333333,57.2727273 L21.2121212,57.2727273 L21.2121212,55.1515152 Z M29.6969697,55.1515152 L33.9393939,55.1515152 L33.9393939,57.2727273 L29.6969697,57.2727273 L29.6969697,55.1515152 Z M38.1818182,55.1515152 L40.3030303,55.1515152 L40.3030303,57.2727273 L38.1818182,57.2727273 L38.1818182,55.1515152 Z M42.4242424,55.1515152 L44.5454545,55.1515152 L44.5454545,57.2727273 L42.4242424,57.2727273 L42.4242424,55.1515152 Z M50.9090909,55.1515152 L53.030303,55.1515152 L53.030303,57.2727273 L50.9090909,57.2727273 L50.9090909,55.1515152 Z M55.1515152,55.1515152 L57.2727273,55.1515152 L57.2727273,57.2727273 L55.1515152,57.2727273 L55.1515152,55.1515152 Z M59.3939394,55.1515152 L63.6363636,55.1515152 L63.6363636,57.2727273 L59.3939394,57.2727273 L59.3939394,55.1515152 Z M65.7575758,55.1515152 L67.8787879,55.1515152 L67.8787879,57.2727273 L65.7575758,57.2727273 L65.7575758,55.1515152 Z M0,57.2727273 L2.12121212,57.2727273 L2.12121212,59.3939394 L0,59.3939394 L0,57.2727273 Z M12.7272727,57.2727273 L14.8484848,57.2727273 L14.8484848,59.3939394 L12.7272727,59.3939394 L12.7272727,57.2727273 Z M23.3333333,57.2727273 L27.5757576,57.2727273 L27.5757576,59.3939394 L23.3333333,59.3939394 L23.3333333,57.2727273 Z M46.6666667,57.2727273 L48.7878788,57.2727273 L48.7878788,59.3939394 L46.6666667,59.3939394 L46.6666667,57.2727273 Z M50.9090909,57.2727273 L53.030303,57.2727273 L53.030303,59.3939394 L50.9090909,59.3939394 L50.9090909,57.2727273 Z M59.3939394,57.2727273 L61.5151515,57.2727273 L61.5151515,59.3939394 L59.3939394,59.3939394 L59.3939394,57.2727273 Z M65.7575758,57.2727273 L70,57.2727273 L70,59.3939394 L65.7575758,59.3939394 L65.7575758,57.2727273 Z M0,59.3939394 L2.12121212,59.3939394 L2.12121212,61.5151515 L0,61.5151515 L0,59.3939394 Z M4.24242424,59.3939394 L10.6060606,59.3939394 L10.6060606,61.5151515 L4.24242424,61.5151515 L4.24242424,59.3939394 Z M12.7272727,59.3939394 L14.8484848,59.3939394 L14.8484848,61.5151515 L12.7272727,61.5151515 L12.7272727,59.3939394 Z M16.969697,59.3939394 L23.3333333,59.3939394 L23.3333333,61.5151515 L16.969697,61.5151515 L16.969697,59.3939394 Z M25.4545455,59.3939394 L27.5757576,59.3939394 L27.5757576,61.5151515 L25.4545455,61.5151515 L25.4545455,59.3939394 Z M29.6969697,59.3939394 L36.0606061,59.3939394 L36.0606061,61.5151515 L29.6969697,61.5151515 L29.6969697,59.3939394 Z M40.3030303,59.3939394 L42.4242424,59.3939394 L42.4242424,61.5151515 L40.3030303,61.5151515 L40.3030303,59.3939394 Z M46.6666667,59.3939394 L48.7878788,59.3939394 L48.7878788,61.5151515 L46.6666667,61.5151515 L46.6666667,59.3939394 Z M50.9090909,59.3939394 L63.6363636,59.3939394 L63.6363636,61.5151515 L50.9090909,61.5151515 L50.9090909,59.3939394 Z M65.7575758,59.3939394 L70,59.3939394 L70,61.5151515 L65.7575758,61.5151515 L65.7575758,59.3939394 Z M0,61.5151515 L2.12121212,61.5151515 L2.12121212,63.6363636 L0,63.6363636 L0,61.5151515 Z M4.24242424,61.5151515 L10.6060606,61.5151515 L10.6060606,63.6363636 L4.24242424,63.6363636 L4.24242424,61.5151515 Z M12.7272727,61.5151515 L14.8484848,61.5151515 L14.8484848,63.6363636 L12.7272727,63.6363636 L12.7272727,61.5151515 Z M19.0909091,61.5151515 L21.2121212,61.5151515 L21.2121212,63.6363636 L19.0909091,63.6363636 L19.0909091,61.5151515 Z M29.6969697,61.5151515 L31.8181818,61.5151515 L31.8181818,63.6363636 L29.6969697,63.6363636 L29.6969697,61.5151515 Z M36.0606061,61.5151515 L46.6666667,61.5151515 L46.6666667,63.6363636 L36.0606061,63.6363636 L36.0606061,61.5151515 Z M48.7878788,61.5151515 L50.9090909,61.5151515 L50.9090909,63.6363636 L48.7878788,63.6363636 L48.7878788,61.5151515 Z M55.1515152,61.5151515 L67.8787879,61.5151515 L67.8787879,63.6363636 L55.1515152,63.6363636 L55.1515152,61.5151515 Z M0,63.6363636 L2.12121212,63.6363636 L2.12121212,65.7575758 L0,65.7575758 L0,63.6363636 Z M4.24242424,63.6363636 L10.6060606,63.6363636 L10.6060606,65.7575758 L4.24242424,65.7575758 L4.24242424,63.6363636 Z M12.7272727,63.6363636 L14.8484848,63.6363636 L14.8484848,65.7575758 L12.7272727,65.7575758 L12.7272727,63.6363636 Z M19.0909091,63.6363636 L21.2121212,63.6363636 L21.2121212,65.7575758 L19.0909091,65.7575758 L19.0909091,63.6363636 Z M29.6969697,63.6363636 L33.9393939,63.6363636 L33.9393939,65.7575758 L29.6969697,65.7575758 L29.6969697,63.6363636 Z M42.4242424,63.6363636 L44.5454545,63.6363636 L44.5454545,65.7575758 L42.4242424,65.7575758 L42.4242424,63.6363636 Z M50.9090909,63.6363636 L53.030303,63.6363636 L53.030303,65.7575758 L50.9090909,65.7575758 L50.9090909,63.6363636 Z M55.1515152,63.6363636 L63.6363636,63.6363636 L63.6363636,65.7575758 L55.1515152,65.7575758 L55.1515152,63.6363636 Z M0,65.7575758 L2.12121212,65.7575758 L2.12121212,67.8787879 L0,67.8787879 L0,65.7575758 Z M12.7272727,65.7575758 L14.8484848,65.7575758 L14.8484848,67.8787879 L12.7272727,67.8787879 L12.7272727,65.7575758 Z M25.4545455,65.7575758 L29.6969697,65.7575758 L29.6969697,67.8787879 L25.4545455,67.8787879 L25.4545455,65.7575758 Z M31.8181818,65.7575758 L40.3030303,65.7575758 L40.3030303,67.8787879 L31.8181818,67.8787879 L31.8181818,65.7575758 Z M44.5454545,65.7575758 L57.2727273,65.7575758 L57.2727273,67.8787879 L44.5454545,67.8787879 L44.5454545,65.7575758 Z M0,67.8787879 L14.8484848,67.8787879 L14.8484848,70 L0,70 L0,67.8787879 Z M16.969697,67.8787879 L23.3333333,67.8787879 L23.3333333,70 L16.969697,70 L16.969697,67.8787879 Z M25.4545455,67.8787879 L29.6969697,67.8787879 L29.6969697,70 L25.4545455,70 L25.4545455,67.8787879 Z M36.0606061,67.8787879 L53.030303,67.8787879 L53.030303,70 L36.0606061,70 L36.0606061,67.8787879 Z M67.8787879,67.8787879 L70,67.8787879 L70,70 L67.8787879,70 L67.8787879,67.8787879 Z" id="Shape" fill="#000000"></path>
                    </g>
                </g>
            </g>
        </g>
    </g>
</svg>