<?xml version="1.0" encoding="UTF-8"?>
<svg width="20px" height="4px" viewBox="0 0 20 4" version="1.1" xmlns="http://www.w3.org/2000/svg" xmlns:xlink="http://www.w3.org/1999/xlink">
    <!-- Generator: Sketch 64 (93537) - https://sketch.com -->
    <title>Group</title>
    <desc>Created with Sketch.</desc>
    <g id="Page-1" stroke="none" stroke-width="1" fill="none" fill-rule="evenodd">
        <g id="Group" fill="#FFFFFF" fill-rule="nonzero">
            <path d="M2,4 C0.9,4 0,3.1 0,2 C0,0.9 0.9,0 2,0 C3.1,0 4,0.9 4,2 C4,3.1 3.1,4 2,4 Z M10,4 C8.9,4 8,3.1 8,2 C8,0.9 8.9,0 10,0 C11.1,0 12,0.9 12,2 C12,3.1 11.1,4 10,4 Z M18,4 C16.9,4 16,3.1 16,2 C16,0.9 16.9,0 18,0 C19.1,0 20,0.9 20,2 C20,3.1 19.1,4 18,4 Z" id="Shape"></path>
        </g>
    </g>
</svg>